<svg width="90" height="90" viewBox="0 0 90 90" fill="none" xmlns="http://www.w3.org/2000/svg">
<mask id="mask0_30_534" style="mask-type:luminance" maskUnits="userSpaceOnUse" x="0" y="0" width="90" height="90">
<path d="M90 0H0V90H90V0Z" fill="white"/>
</mask>
<g mask="url(#mask0_30_534)">
<path d="M68.3569 58.7654C67.5097 57.9182 66.106 58.0526 65.4275 59.0396C60.9583 65.5304 53.4762 69.7852 45 69.7852C36.7128 69.7852 29.3757 65.7185 24.8757 59.4712C24.1857 58.5123 22.8041 58.3954 21.9691 59.2304C21.3038 59.8957 21.2247 60.9434 21.7749 61.7071C26.9683 68.9159 35.4357 73.6084 45 73.6084C54.7892 73.6084 63.4307 68.6918 68.5881 61.1921C69.1084 60.4362 69.0064 59.4149 68.3569 58.7654ZM45 20.2148C53.4551 20.2148 60.9214 24.4485 65.3941 30.912C66.0744 31.8955 67.4763 32.0273 68.3218 31.1818L68.3226 31.181C68.9722 30.5314 69.0732 29.5084 68.5503 28.7525C63.3885 21.2845 54.7655 16.3916 45 16.3916C35.4603 16.3916 27.0114 21.0604 21.8136 28.2384C21.2607 29.0013 21.3398 30.0516 22.006 30.7187L22.0069 30.7195C22.841 31.5536 24.2191 31.4376 24.9108 30.4822C29.4126 24.2613 36.7339 20.2148 45 20.2148Z" fill="#1D302E"/>
</g>
<mask id="mask1_30_534" style="mask-type:luminance" maskUnits="userSpaceOnUse" x="0" y="0" width="90" height="90">
<path d="M90 0H0V90H90V0Z" fill="white"/>
</mask>
<g mask="url(#mask1_30_534)">
<path d="M63.0791 49.3506C64.3386 49.3506 65.2333 50.5898 64.822 51.7808C64.5372 52.6069 64.2015 53.4094 63.82 54.1846C59.7639 62.4234 50.4448 67.6046 40.2504 65.3414C32.4826 63.617 26.383 57.5174 24.6586 49.7496C21.2695 34.4848 34.5727 21.1816 49.8375 24.5707C55.2929 25.7818 59.9256 29.1507 62.7979 33.7403C63.2241 34.4215 62.9859 35.3224 62.2863 35.7179L58.0192 38.1252C57.3732 38.4899 56.5506 38.2975 56.1428 37.677C53.7697 34.0655 49.6802 31.6819 45.0343 31.6846C37.8202 31.6898 31.7777 37.7323 31.7725 44.9464C31.7672 52.2835 37.7165 58.2328 45.0536 58.2275C48.1799 58.2249 51.0864 57.0894 53.3751 55.2155C53.7978 54.8692 53.5553 54.1846 53.0095 54.1846H47.8503C46.8343 54.1846 46.0099 53.361 46.0099 52.345V51.191C46.0099 50.175 46.8334 49.3506 47.8503 49.3506H63.0791Z" fill="#72EB45"/>
</g>
<mask id="mask2_30_534" style="mask-type:luminance" maskUnits="userSpaceOnUse" x="0" y="0" width="90" height="90">
<path d="M90 0H0V90H90V0Z" fill="white"/>
</mask>
<g mask="url(#mask2_30_534)">
<path d="M18.6328 60.3369C17.2978 60.3369 16.2158 59.255 16.2158 57.9199V33.3984C16.2158 32.0634 17.2978 30.9814 18.6328 30.9814C19.9679 30.9814 21.0498 32.0634 21.0498 33.3984V57.9199C21.0498 59.255 19.9679 60.3369 18.6328 60.3369Z" fill="#1D302E"/>
</g>
<mask id="mask3_30_534" style="mask-type:luminance" maskUnits="userSpaceOnUse" x="0" y="0" width="90" height="90">
<path d="M90 0H0V90H90V0Z" fill="white"/>
</mask>
<g mask="url(#mask3_30_534)">
<path d="M12.2168 56.2061C10.8817 56.2061 9.7998 55.1241 9.7998 53.7891V37.5293C9.7998 36.1942 10.8817 35.1123 12.2168 35.1123C13.5519 35.1123 14.6338 36.1942 14.6338 37.5293V53.7891C14.6338 55.1241 13.5519 56.2061 12.2168 56.2061Z" fill="#1D302E"/>
</g>
<mask id="mask4_30_534" style="mask-type:luminance" maskUnits="userSpaceOnUse" x="0" y="0" width="90" height="90">
<path d="M90 0H0V90H90V0Z" fill="white"/>
</mask>
<g mask="url(#mask4_30_534)">
<path d="M6.24023 49.6143C4.90518 49.6143 3.82324 48.5323 3.82324 47.1973V44.1211C3.82324 42.786 4.90518 41.7041 6.24023 41.7041C7.57529 41.7041 8.65723 42.786 8.65723 44.1211V47.1973C8.65723 48.5323 7.57529 49.6143 6.24023 49.6143Z" fill="#1D302E"/>
</g>
<mask id="mask5_30_534" style="mask-type:luminance" maskUnits="userSpaceOnUse" x="0" y="0" width="90" height="90">
<path d="M90 0H0V90H90V0Z" fill="white"/>
</mask>
<g mask="url(#mask5_30_534)">
<path d="M71.8945 30.9814C73.2296 30.9814 74.3115 32.0634 74.3115 33.3984V57.9199C74.3115 59.255 73.2296 60.3369 71.8945 60.3369C70.5595 60.3369 69.4775 59.255 69.4775 57.9199V33.3984C69.4775 32.0634 70.5595 30.9814 71.8945 30.9814Z" fill="#1D302E"/>
</g>
<mask id="mask6_30_534" style="mask-type:luminance" maskUnits="userSpaceOnUse" x="0" y="0" width="90" height="90">
<path d="M90 0H0V90H90V0Z" fill="white"/>
</mask>
<g mask="url(#mask6_30_534)">
<path d="M78.3105 35.1123C79.6456 35.1123 80.7275 36.1942 80.7275 37.5293V53.7891C80.7275 55.1241 79.6456 56.2061 78.3105 56.2061C76.9755 56.2061 75.8936 55.1241 75.8936 53.7891V37.5293C75.8936 36.1942 76.9755 35.1123 78.3105 35.1123Z" fill="#1D302E"/>
</g>
<mask id="mask7_30_534" style="mask-type:luminance" maskUnits="userSpaceOnUse" x="0" y="0" width="90" height="90">
<path d="M90 0H0V90H90V0Z" fill="white"/>
</mask>
<g mask="url(#mask7_30_534)">
<path d="M84.2871 41.7041C85.6222 41.7041 86.7041 42.786 86.7041 44.1211V47.1973C86.7041 48.5323 85.6222 49.6143 84.2871 49.6143C82.9521 49.6143 81.8701 48.5323 81.8701 47.1973V44.1211C81.8701 42.786 82.9521 41.7041 84.2871 41.7041Z" fill="#1D302E"/>
</g>
<mask id="mask8_30_534" style="mask-type:luminance" maskUnits="userSpaceOnUse" x="0" y="0" width="90" height="90">
<path d="M90 0H0V90H90V0Z" fill="white"/>
</mask>
<g mask="url(#mask8_30_534)">
<path d="M38.4521 45.7163V45.5142C38.4521 44.2353 39.4893 43.1982 40.7681 43.1982H64.7886C66.0674 43.1982 67.1045 44.2353 67.1045 45.5142V45.7163C67.1045 46.9951 66.0674 48.0322 64.7886 48.0322H40.7681C39.4893 48.0322 38.4521 46.9951 38.4521 45.7163Z" fill="#1D302E"/>
</g>
</svg>
